PathFileType	4	(X/Y/Z)	C:/Users/opensim2020/Desktop/walking_exp_matlab/subject01_walking15_straight_03.trc	
DataRate	CameraRate	NumFrames	NumMarkers	Units	OrigDataRate	OrigDataStartFrame	OrigNumFrames	
100.00	100.00	8	43	mm	100.00	1726	145	
Frame#	Time	LFHD			RFHD			LBHD			RBHD			C7			T10			CLAV			STRN			RBAK			LSHO			LUPA			LELB			LFRM			LWRA			LWRB			LFIN			RSHO			RUPA			RELB			RFRM			RWRA			RWRB			RFIN			LASI			RASI			LPSI			RPSI			LTHI			LKNE			LTIB			LANK			LHEE			LTOE			RTHI			RKNE			RTIB			RANK			RHEE			RTOE			*39			*40			*41			*42			
		X1	Y1	Z1	X2	Y2	Z2	X3	Y3	Z3	X4	Y4	Z4	X5	Y5	Z5	X6	Y6	Z6	X7	Y7	Z7	X8	Y8	Z8	X9	Y9	Z9	X10	Y10	Z10	X11	Y11	Z11	X12	Y12	Z12	X13	Y13	Z13	X14	Y14	Z14	X15	Y15	Z15	X16	Y16	Z16	X17	Y17	Z17	X18	Y18	Z18	X19	Y19	Z19	X20	Y20	Z20	X21	Y21	Z21	X22	Y22	Z22	X23	Y23	Z23	X24	Y24	Z24	X25	Y25	Z25	X26	Y26	Z26	X27	Y27	Z27	X28	Y28	Z28	X29	Y29	Z29	X30	Y30	Z30	X31	Y31	Z31	X32	Y32	Z32	X33	Y33	Z33	X34	Y34	Z34	X35	Y35	Z35	X36	Y36	Z36	X37	Y37	Z37	X38	Y38	Z38	X39	Y39	Z39	X40	Y40	Z40	X41	Y41	Z41	X42	Y42	Z42	X43	Y43	Z43	

127	1.260	1322.46387	769.71808	1649.62854	1424.58545	815.48407	1668.74951	1369.95251	666.95612	1597.68115	1478.79395	712.95874	1616.08484	1417.42310	655.66364	1415.76184	1453.88196	620.47601	1123.78101	1408.87000	803.00305	1351.05835	1419.19434	848.33185	1196.32104	1517.25024	606.45251	1233.93005	1253.32788	726.68994	1368.00232	1190.68164	671.62964	1181.87708	1208.72070	635.54700	1038.54724	1188.13196	640.85803	925.55157	1202.82385	687.68365	792.72729	1188.22290	630.41034	803.24146	1173.26697	654.79248	724.32947	1559.48230	748.70959	1401.83386	1685.20850	684.85114	1221.97791	1706.26257	691.18170	1094.15808	1726.42981	766.54370	991.67365	1683.91064	879.90973	917.87567	1730.14270	850.53082	901.03107	1721.58533	919.13611	851.60181	1354.48901	802.74731	924.62726	1570.47498	795.91510	919.61420	1399.57031	614.12030	925.84229	1543.57605	610.74933	925.96399	1297.24573	845.01331	602.20959	1321.13855	870.79993	470.96127	1322.82410	825.90686	286.50128	1387.68079	802.32709	74.40623	1443.59473	760.85730	44.59416	1365.33411	945.94049	39.65675	1644.36182	744.68793	580.54083	1636.03357	746.68207	422.12048	1643.71887	590.20685	343.11865	1605.04980	422.74545	222.38078	1548.90845	373.15961	239.91342	1612.48706	439.99585	77.79046	1402.38757	793.05804	1698.01331	-3101.95508	1973.13794	1023.44403	-3140.76782	2012.48889	1022.04327			 
128	1.270	1319.60168	782.36896	1651.04553	1421.52014	828.45160	1670.28040	1367.31189	679.60657	1599.37854	1475.97595	725.84393	1617.91357	1414.82983	668.37122	1417.36414	1451.89185	632.69934	1125.62683	1406.64758	815.63190	1352.71631	1417.04126	860.96155	1197.97485	1514.63477	619.08862	1235.46228	1251.12988	739.18207	1369.47827	1188.22949	685.80743	1183.25146	1205.42395	651.98114	1038.59851	1184.42114	660.79077	925.79346	1197.98145	712.13678	794.94202	1184.10461	654.23389	803.28735	1168.53162	681.04016	725.39178	1557.36633	761.39514	1403.58032	1683.19946	698.03973	1223.64063	1703.42395	703.49298	1095.44946	1724.66931	775.01721	990.68677	1683.04053	885.87915	912.37354	1729.49634	855.90570	897.19830	1720.83777	922.33746	844.58649	1352.23657	815.17218	925.91327	1568.34827	807.57623	921.48627	1397.48511	626.60669	927.52039	1541.45105	623.49548	927.14331	1295.52844	852.24384	601.90558	1319.85950	876.32513	470.42584	1322.13391	828.35663	286.44431	1387.69568	802.55829	74.61610	1443.89392	761.13849	45.02906	1365.12402	946.07520	39.47211	1641.24670	766.54041	582.55951	1633.09216	773.33319	424.74277	1640.70203	616.76904	344.83286	1602.57166	449.02353	224.77419	1546.66382	397.85675	240.61600	1613.01550	469.66632	81.50337	1399.30994	806.18011	1699.63281	-3101.90283	1973.10107	1023.65747	-3140.67896	2012.51050	1022.05573			 
129	1.280	1316.79626	795.18817	1652.60791	1418.71167	841.40790	1671.81421	1364.81897	692.33856	1601.30298	1473.37378	738.75433	1619.85315	1412.64880	680.84747	1419.02087	1449.63147	645.33942	1127.14026	1404.45215	828.17023	1354.36633	1414.90430	873.49304	1199.65381	1511.98511	631.52509	1237.05359	1248.96741	751.65833	1371.07117	1185.76123	700.02350	1184.62903	1202.31482	668.39709	1039.20483	1180.72815	680.73206	926.33887	1193.91833	736.63080	796.98053	1180.07056	678.29730	803.78638	1163.70410	707.93646	726.94690	1555.19299	773.94354	1405.21155	1681.10669	711.04382	1225.24963	1700.68713	715.80334	1096.74341	1723.11987	783.37030	989.94379	1682.33313	891.35284	906.92328	1729.23450	860.97253	893.57507	1720.34460	924.92133	837.77911	1350.04065	827.47028	927.29291	1566.27771	820.00348	923.71112	1395.52002	639.10779	929.24530	1539.36829	636.42383	928.57599	1294.47449	859.16937	601.51740	1318.44238	881.57977	469.47488	1321.34619	831.09058	286.06293	1387.64111	802.77228	74.76861	1443.88684	761.24164	45.29393	1365.00537	946.21729	39.35824	1637.80078	788.17334	584.55658	1629.39392	799.40582	427.41876	1637.44714	643.59406	346.13190	1600.42651	476.10205	226.18297	1544.64661	423.28223	240.02498	1612.83936	500.78091	84.20885	1396.56055	819.23712	1701.18030	-3101.97974	1973.18518	1023.55304	-3140.73828	2012.55762	1022.11530			 
130	1.290	1314.24268	807.88324	1654.07214	1416.05994	854.34344	1673.30701	1362.58447	705.23657	1603.07202	1470.96497	751.63464	1621.73218	1410.52893	693.20825	1420.62183	1447.40601	657.77405	1128.84045	1402.38635	840.55249	1356.04614	1412.60913	884.97974	1201.12585	1509.45203	643.96533	1238.66895	1246.95215	764.04828	1372.75842	1183.35339	714.10718	1186.16980	1199.00452	684.22815	1039.59851	1176.95007	700.65192	927.12518	1189.32678	761.40002	799.99139	1175.75708	702.86694	804.54132	1158.74182	735.33466	729.17450	1553.05798	786.42810	1406.77100	1678.99792	723.85229	1226.74194	1698.00720	728.08252	1098.04712	1721.50842	791.37927	989.14990	1681.85413	896.30408	901.63397	1729.04102	865.56451	890.09760	1720.19910	926.91791	831.32465	1347.77698	839.63892	928.67065	1563.99402	832.53784	925.92999	1393.73975	651.44482	931.02277	1537.41345	649.41193	930.22021	1292.94897	866.45081	601.00006	1317.21704	886.44464	468.37802	1320.58459	834.01080	285.49521	1387.59692	803.10284	74.97557	1443.80872	761.33026	45.66891	1364.78796	946.43445	39.17286	1634.65491	809.93060	587.08728	1625.80164	825.42700	430.24057	1634.79492	670.45532	347.90070	1598.31921	503.64737	226.09489	1542.81775	449.39267	238.13930	1611.85425	533.17627	85.62701	1394.11975	832.29150	1702.65771	-3101.92651	1973.05017	1023.36731	-3140.63599	2012.58496	1022.17206			 
131	1.300	1311.98914	820.45911	1655.54529	1413.48059	867.14423	1674.68530	1360.48926	717.81915	1604.87390	1468.73389	764.42694	1623.46741	1408.48584	705.67615	1422.10999	1445.06531	670.16675	1130.42627	1400.32153	852.94806	1357.67273	1410.53345	897.31421	1202.70374	1507.00317	656.37292	1240.15283	1244.82190	776.20374	1374.36536	1180.95349	727.99689	1187.76453	1195.98657	699.78632	1040.21545	1173.16235	720.38513	928.21887	1184.78076	786.30865	803.63544	1171.49817	727.61047	805.82190	1153.93616	763.14819	732.13116	1550.76697	798.75214	1408.17554	1676.82861	736.49799	1228.13538	1695.47131	740.24603	1099.50110	1720.05713	799.20770	988.63611	1681.71289	900.85699	896.66779	1728.88123	869.43683	886.85339	1720.35547	928.27844	825.21405	1345.35388	851.70325	930.03369	1561.25757	844.97260	927.91058	1392.07520	663.70337	932.83081	1536.04187	662.42230	932.20673	1291.56689	873.81213	600.44519	1316.28760	890.84131	467.22800	1319.84583	836.92242	285.07297	1387.49231	803.40979	75.19103	1443.88660	761.50549	46.07240	1364.72058	946.59052	39.10308	1631.50037	831.40308	589.66327	1621.75293	850.71680	433.03955	1631.26904	697.54169	348.40021	1595.73853	531.44092	224.57356	1540.85657	476.04526	234.39919	1610.11414	566.89899	86.04804	1391.80823	845.28528	1704.05383	-3101.97583	1973.17261	1023.91156	-3140.66699	2012.45398	1022.18274			 
132	1.310	1309.68091	832.94904	1656.93787	1411.23083	879.87512	1676.00134	1358.49377	730.24609	1606.60291	1466.65955	777.18860	1625.06714	1406.28015	717.86163	1423.49597	1442.71057	682.46021	1131.90674	1398.24231	865.24817	1359.24329	1408.55762	910.46051	1204.48315	1504.80737	668.74817	1241.61438	1242.87451	788.41620	1376.09521	1178.55127	741.78296	1189.39319	1192.80774	715.40106	1041.01721	1169.34717	740.11932	929.52148	1179.98083	811.33807	807.92175	1167.19592	752.54767	807.54083	1148.70056	791.52637	735.56427	1548.87122	811.14636	1409.68311	1674.55347	749.02161	1229.34436	1692.76465	752.14771	1100.86902	1718.75208	806.89130	988.42896	1681.63354	905.03571	891.95642	1729.00806	873.06720	883.94672	1720.86523	929.18011	819.54510	1342.75183	863.60565	931.28143	1558.55054	857.84937	929.97101	1390.61609	675.90900	934.49078	1534.63281	675.58594	934.11499	1290.40588	881.27515	600.00873	1315.37109	895.40192	466.30661	1319.23376	839.67291	284.70969	1386.98193	803.58014	74.98177	1443.54651	761.43835	46.55966	1364.63770	946.69006	38.94851	1628.66638	852.96100	592.61627	1618.26721	875.97162	436.51022	1628.39172	724.32068	349.55951	1593.82227	560.61401	222.12709	1539.52795	503.66452	229.89629	1608.71130	602.55414	86.12651	1389.66418	858.22235	1705.43018	-3102.12695	1973.09021	1023.99432	-3140.64478	2012.58154	1022.18835			 
133	1.320	1307.60596	845.42352	1658.31848	1408.99573	892.54456	1677.21948	1356.58081	742.39337	1608.36340	1464.72791	789.82587	1626.52490	1404.30444	730.11157	1424.88379	1440.37598	694.88855	1133.26331	1396.10742	877.45374	1360.69031	1406.10864	921.83478	1205.59558	1502.65442	681.17126	1242.91162	1240.84863	800.51691	1377.75134	1176.14502	755.24945	1191.02673	1189.37439	730.77222	1041.77490	1165.49243	759.73071	931.03607	1174.99133	836.44647	812.84528	1162.96777	777.61249	809.74335	1143.74878	819.76019	739.85095	1546.86121	823.48792	1411.04993	1672.32800	761.44531	1230.50281	1690.11572	763.77625	1102.27063	1717.60144	814.52338	988.48621	1681.95081	908.67371	887.47144	1729.42029	876.49469	881.58588	1721.75964	929.74506	814.44391	1340.04785	875.34436	932.40417	1555.55139	870.75043	931.75470	1389.25842	688.01062	936.13062	1533.69714	688.89905	936.17365	1289.36023	888.52856	599.58429	1314.48633	899.62579	465.62231	1318.65967	842.10962	284.34644	1386.95886	803.58984	75.24274	1443.57483	761.63708	47.10398	1364.52759	946.78333	38.78645	1625.73645	874.11047	595.51013	1614.63232	900.61969	440.22345	1625.41260	750.84528	350.49155	1591.66809	590.21399	218.57344	1538.06238	532.08899	223.62099	1605.90466	638.52582	84.67448	1387.65588	870.96252	1706.79028	-3102.05688	1973.11414	1023.38831	-3140.81519	2012.48291	1022.04633			 
134	1.330	1305.71423	857.92535	1659.68970	1406.98596	905.11792	1678.38440	1354.78931	754.82074	1609.87744	1462.93030	802.45465	1627.87354	1402.32397	742.37714	1426.08997	1438.10852	707.30115	1134.49292	1394.02722	889.70764	1362.04761	1403.84595	934.05707	1206.91943	1500.62341	693.69501	1244.10657	1238.92310	812.58472	1379.33972	1173.68408	768.53015	1192.65112	1185.90918	746.14246	1042.51477	1161.66260	779.35022	932.79492	1170.36304	861.41663	818.24622	1158.65112	802.74207	812.37933	1138.64868	848.06970	744.74817	1544.95190	835.89948	1412.29028	1670.06482	773.73212	1231.50293	1687.28296	775.12231	1103.55896	1716.26184	821.76740	988.68744	1682.35498	912.09393	883.45142	1729.94556	879.42499	879.49054	1723.06592	929.80609	809.96478	1337.18750	887.11426	933.51349	1552.38611	883.72339	933.48627	1388.06421	698.99683	937.84460	1532.59729	702.20483	937.92792	1288.31897	895.60260	599.36212	1313.57666	903.57306	465.19330	1318.14575	844.49829	284.17825	1386.81934	804.04053	75.38295	1443.58472	761.81879	47.71630	1364.43140	946.84521	38.67551	1622.77771	895.08710	598.51941	1610.96326	924.71478	444.16934	1621.89905	776.66296	350.48828	1589.24878	620.46808	213.61122	1536.36011	561.41089	216.39970	1603.10144	675.77484	82.83933	1385.64648	883.63470	1708.03125	-3102.06860	1973.03821	1023.91541	-3140.84277	2012.57556	1022.17023			 
